<svg width="1287" height="1283" viewBox="0 0 1287 1283" fill="none" xmlns="http://www.w3.org/2000/svg">
<rect width="1287" height="1283" fill="#000E41"/>
<path fill-rule="evenodd" clip-rule="evenodd" d="M644.272 573.182C635.411 573.182 626.912 576.702 620.646 582.968C614.38 589.234 610.859 597.733 610.859 606.594C610.859 615.456 614.38 623.955 620.646 630.221C626.912 636.487 635.411 640.007 644.272 640.007C653.134 640.007 661.632 636.487 667.899 630.221C674.165 623.955 677.685 615.456 677.685 606.594C677.685 597.733 674.165 589.234 667.899 582.968C661.632 576.702 653.134 573.182 644.272 573.182ZM605.089 567.412C615.481 557.02 629.576 551.182 644.272 551.182C658.969 551.182 673.063 557.02 683.455 567.412C693.847 577.804 699.685 591.898 699.685 606.594C699.685 621.291 693.847 635.385 683.455 645.777C673.063 656.169 658.969 662.007 644.272 662.007C629.576 662.007 615.481 656.169 605.089 645.777C594.697 635.385 588.859 621.291 588.859 606.594C588.859 591.898 594.697 577.804 605.089 567.412Z" fill="white"/>
<path fill-rule="evenodd" clip-rule="evenodd" d="M644.264 673.578C651.14 673.578 658.603 673.945 664.011 674.856L679.824 677.521C728.596 685.742 764.179 728.328 764.179 778.028V778.046C764.172 783.136 765.414 788.149 767.797 792.646C770.18 797.143 773.63 800.986 777.845 803.838L777.895 803.871L779.614 805.046C779.625 805.054 779.637 805.061 779.648 805.069C782.184 806.772 784.935 808.128 787.83 809.103L787.831 809.103L808.403 816.032C815.376 818.38 819.126 825.938 816.777 832.911C814.428 839.885 806.871 843.634 799.898 841.286L779.327 834.358C774.161 832.618 769.253 830.195 764.732 827.151L764.657 827.1L762.912 825.908C762.903 825.902 762.893 825.895 762.884 825.889C755.069 820.594 748.671 813.464 744.251 805.123C739.827 796.775 737.52 787.469 737.531 778.022C737.528 741.137 711.147 709.824 675.395 703.798M675.395 703.798L659.586 701.133C659.585 701.133 659.585 701.133 659.584 701.133C656.339 700.587 650.595 700.226 644.264 700.226C637.932 700.226 632.187 700.587 628.942 701.133L613.116 703.798C613.115 703.798 613.114 703.798 613.113 703.798C577.367 709.825 551 741.134 550.997 778.022C551.008 787.469 548.701 796.775 544.278 805.123C539.862 813.455 533.474 820.579 525.67 825.871L523.94 827.065C523.89 827.1 523.84 827.134 523.789 827.168C519.247 830.211 514.353 832.61 509.23 834.348L509.203 834.357L488.631 841.286C481.657 843.634 474.1 839.885 471.751 832.911C469.403 825.938 473.152 818.38 480.126 816.032L500.67 809.113C500.674 809.111 500.678 809.11 500.681 809.109C503.593 808.12 506.346 806.77 508.887 805.076L510.583 803.906C510.605 803.891 510.626 803.876 510.648 803.861C510.66 803.854 510.671 803.846 510.683 803.838C514.898 800.986 518.348 797.143 520.731 792.646C523.114 788.149 524.357 783.136 524.35 778.046L524.35 778.028C524.35 728.332 559.91 685.742 608.687 677.521L624.518 674.856C624.518 674.856 624.518 674.856 624.518 674.856C629.925 673.945 637.388 673.578 644.264 673.578" fill="white"/>
<path fill-rule="evenodd" clip-rule="evenodd" d="M607.836 800.235C613.723 804.651 614.915 813.002 610.499 818.889L594.068 840.791L594.067 840.792L594.066 840.793C593.85 841.082 593.637 841.366 593.427 841.647C591.375 844.388 589.614 846.742 587.59 848.824C582.594 854.032 576.507 858.068 569.765 860.643C566.951 861.723 564.068 862.443 560.263 863.394C560.138 863.425 560.012 863.457 559.885 863.488L528.054 871.442C528.051 871.443 528.047 871.443 528.044 871.444C524.121 872.435 520.695 874.822 518.408 878.16C516.119 881.5 515.129 885.562 515.624 889.581C516.119 893.6 518.066 897.3 521.097 899.984C524.126 902.667 528.031 904.152 532.077 904.16H544.2C571.676 904.16 598.38 895.254 620.36 878.773C620.36 878.773 620.36 878.773 620.36 878.773L654.025 853.529C659.912 849.114 668.264 850.308 672.678 856.195C677.093 862.082 675.899 870.433 670.012 874.848L653.942 886.898L662.697 890.18C672.145 893.736 676.424 895.324 680.719 896.659L680.74 896.666C693.674 900.711 707.058 903.139 720.588 903.896L720.607 903.897C725.095 904.155 729.648 904.16 739.794 904.16H756.43C760.476 904.152 764.38 902.667 767.41 899.984C770.441 897.3 772.388 893.6 772.883 889.581C773.378 885.562 772.388 881.5 770.099 878.16C767.812 874.823 764.387 872.436 760.465 871.445C760.461 871.444 760.457 871.443 760.453 871.442L734.283 864.908C733.748 864.774 733.219 864.642 732.697 864.512C724.344 862.427 717.69 860.767 711.765 857.343C709.878 856.256 708.185 855.083 706.723 853.992C706.697 853.973 706.671 853.953 706.645 853.933C701.14 849.762 697.008 844.238 691.763 837.225C691.485 836.853 691.203 836.477 690.918 836.096C690.918 836.095 690.917 836.095 690.917 836.094L678.008 818.889C673.592 813.003 674.784 804.651 680.67 800.235C686.556 795.819 694.908 797.011 699.324 802.897L712.246 820.121C718.741 828.793 720.593 831.059 722.704 832.668C723.602 833.336 724.377 833.856 725.067 834.253L725.095 834.268C727.394 835.599 730.15 836.402 740.755 839.059C740.756 839.059 740.757 839.059 740.757 839.059L766.933 845.594L766.959 845.601C777.186 848.176 786.12 854.398 792.081 863.097C798.042 871.796 800.62 882.373 799.33 892.84C798.041 903.307 792.972 912.942 785.077 919.934C777.182 926.925 767.005 930.792 756.459 930.807L739.337 930.807C729.773 930.807 724.428 930.808 719.091 930.502C703.373 929.621 687.825 926.801 672.799 922.103C667.612 920.49 662.549 918.597 653.319 915.123C653.316 915.122 653.313 915.12 653.31 915.119L628.29 905.74C603.353 922.057 574.156 930.807 544.2 930.807L532.048 930.807C521.502 930.792 511.325 926.925 503.43 919.934C495.535 912.942 490.466 903.307 489.176 892.84C487.887 882.373 490.465 871.796 496.426 863.097C502.387 854.398 511.321 848.176 521.548 845.601L553.422 837.636C553.423 837.636 553.423 837.636 553.424 837.636C557.95 836.505 559.159 836.171 560.228 835.761L560.252 835.752C563.327 834.578 566.104 832.735 568.379 830.356C568.411 830.322 568.443 830.289 568.476 830.256C569.207 829.508 569.877 828.632 572.749 824.803L572.75 824.802L583.399 832.79C572.75 824.802 572.75 824.802 572.75 824.802L572.752 824.799L589.183 802.897C593.599 797.011 601.95 795.819 607.836 800.235Z" fill="white"/>
<circle cx="406.005" cy="602.589" r="28.0518" fill="#FBBC05"/>
<circle cx="454.535" cy="475.514" r="36.1869" fill="#00ED7B"/>
<circle cx="645.288" cy="409.311" r="60.3114" fill="#3684F4"/>
<circle cx="822.574" cy="475.514" r="36.1869" fill="#00ED7B"/>
<ellipse cx="883.707" cy="602.589" rx="27.7502" ry="28.0518" fill="#FBBC05"/>
<circle cx="857.917" cy="735.274" r="22.722" fill="#EA4335"/>
<circle cx="430.972" cy="735.274" r="22.722" fill="#EA4335"/>
</svg>
